<svg width="28" height="28" viewBox="0 0 28 28" fill="none" xmlns="http://www.w3.org/2000/svg">
<g clip-path="url(#clip0_1_1178)">
<mask id="mask0_1_1178" style="mask-type:alpha" maskUnits="userSpaceOnUse" x="0" y="0" width="28" height="28">
<path d="M14 28C21.732 28 28 21.732 28 14C28 6.26801 21.732 0 14 0C6.26801 0 0 6.26801 0 14C0 21.732 6.26801 28 14 28Z" fill="#C4C4C4"/>
</mask>
<g mask="url(#mask0_1_1178)">
<path d="M14 28C21.732 28 28 21.732 28 14C28 6.26801 21.732 0 14 0C6.26801 0 0 6.26801 0 14C0 21.732 6.26801 28 14 28Z" fill="#F7E5BC"/>
<path d="M30.099 22.763L28.196 27.152C28.047 27.498 27.831 27.811 27.559 28.072C27.287 28.333 26.965 28.537 26.613 28.672C26.261 28.807 25.885 28.869 25.508 28.856C25.131 28.843 24.761 28.755 24.419 28.596L17.309 25.36L20.85 19.777L25.183 22.194L25.821 20.305C28.057 21.194 29.252 21.972 30.099 22.763Z" fill="#F7E5BC"/>
<path d="M21.8359 20.638C24.6969 21.111 24.9609 21.708 25.7239 23.208L22.6549 22.86L21.8359 20.638Z" fill="#F7E5BC"/>
<path d="M8.365 -3.14999C7.796 -2.97299 7.31601 -2.586 7.02201 -2.067C6.72801 -1.549 6.64202 -0.937991 6.78202 -0.358991L9.62901 11.265L14.726 10.209L11.296 -1.567C11.21 -1.865 11.065 -2.143 10.871 -2.384C10.676 -2.626 10.436 -2.826 10.163 -2.974C9.89 -3.121 9.59102 -3.21299 9.28202 -3.24299C8.97302 -3.27299 8.662 -3.24199 8.365 -3.14999Z" fill="#D6569B"/>
<path d="M11.199 8.54301L13.213 8.45901L11.074 1.46001C11.044 1.36001 10.994 1.26601 10.927 1.18601C10.86 1.10501 10.777 1.04 10.683 0.993004C10.589 0.946004 10.487 0.919002 10.382 0.913002C10.277 0.907002 10.172 0.924014 10.074 0.960014C9.90198 1.02601 9.75996 1.15301 9.67496 1.31701C9.59096 1.48101 9.56897 1.67001 9.61597 1.84901L11.199 8.54301Z" fill="#E374B0"/>
<path d="M20.157 -3.206C20.728 -3.034 21.213 -2.652 21.512 -2.136C21.811 -1.62 21.903 -1.009 21.768 -0.427997L19.046 11.209L13.936 10.223L17.241 -1.595C17.324 -1.894 17.466 -2.17301 17.658 -2.41701C17.85 -2.66001 18.089 -2.863 18.361 -3.013C18.632 -3.163 18.931 -3.257 19.239 -3.29C19.548 -3.324 19.86 -3.295 20.157 -3.206Z" fill="#D6569B"/>
<path d="M18.2261 8.515L16.2271 8.445L18.2821 1.419C18.3111 1.318 18.361 1.225 18.429 1.145C18.496 1.065 18.5801 0.999991 18.6741 0.953991C18.7681 0.907991 18.8711 0.881994 18.9761 0.878994C19.0801 0.874994 19.1851 0.893004 19.2821 0.932004C19.4541 0.996004 19.5971 1.119 19.6841 1.28C19.7711 1.442 19.7961 1.629 19.7541 1.807L18.2261 8.515Z" fill="#E374B0"/>
<path d="M23.934 25.457L23.101 28.096L22.99 28.429L21.962 31.651H2.85298C2.67298 30.943 2.895 30.804 3.381 30.012C3.867 29.221 3.617 29.429 3.687 27.513C3.742 26.166 4.22798 24.916 5.96398 23.36C6.49198 22.902 6.61698 22.722 7.15798 22.222L7.325 22.069L7.40798 21.986L7.519 21.902L20.573 19.847L23.198 24.221L23.934 25.457Z" fill="#F7E5BC"/>
<path d="M23.1 28.096C23.016 29.36 22.905 30.554 22.766 31.651H8.72601C8.74001 31.082 8.75401 30.373 8.78201 29.512C8.78001 29.42 8.78399 29.327 8.79599 29.235V28.165C8.69899 25.624 7.97701 23.888 5.96301 23.36C6.33801 22.985 6.72701 22.61 7.15701 22.222L7.32401 22.069L7.51801 21.902L20.572 19.847C21.6 20.222 22.28 20.486 23.058 21.277C23.141 22.277 23.183 23.263 23.197 24.221C23.211 25.568 23.169 26.86 23.1 28.096Z" fill="#1F3A70"/>
<path d="M21.8479 14.35L6.69692 14.956C4.70192 15.036 3.15094 16.717 3.22994 18.711L3.23092 18.717C3.30992 20.711 4.99192 22.263 6.98592 22.183L22.1369 21.577C24.1309 21.497 25.6829 19.816 25.6029 17.822V17.816C25.5229 15.822 23.8419 14.27 21.8479 14.35Z" fill="#F06EA8"/>
<path d="M21.0569 7.633L6.33493 8.25C4.22793 8.339 2.59093 10.118 2.67893 12.226L2.68494 12.352C2.77294 14.459 4.55294 16.096 6.65994 16.008L21.3819 15.391C23.4889 15.302 25.1259 13.523 25.0369 11.415L25.032 11.289C24.944 9.182 23.1639 7.545 21.0569 7.633Z" fill="#F06EA8"/>
<path d="M22.087 21.458C24.031 21.374 25.6279 19.805 25.6279 17.861C25.6339 17.154 25.4319 16.461 25.0469 15.868C24.6619 15.275 24.11 14.809 23.461 14.528C23.95 14.156 24.3409 13.671 24.6019 13.115C24.8629 12.559 24.987 11.948 24.961 11.334V11.209C24.94 10.707 24.82 10.215 24.608 9.75999C24.396 9.30399 24.096 8.89499 23.726 8.55599C23.356 8.21699 22.922 7.954 22.45 7.783C21.978 7.611 21.477 7.534 20.976 7.557L7.83796 8.11199C6.65796 10.376 6.82396 12.806 7.69896 14.556C7.82696 14.821 7.89896 15.109 7.91096 15.403C7.92296 15.696 7.87496 15.99 7.76896 16.264C6.50496 19.625 8.17195 22.055 8.17195 22.055L22.087 21.458Z" fill="#E05FA3"/>
<path d="M11.478 14.65C11.811 14.432 11.83 13.87 11.519 13.395C11.208 12.92 10.686 12.712 10.352 12.93C10.019 13.149 10 13.711 10.311 14.185C10.622 14.66 11.144 14.868 11.478 14.65Z" fill="#1B1926"/>
<path d="M18.059 13.613C18.204 13.096 18.033 12.596 17.679 12.497C17.324 12.398 16.919 12.737 16.775 13.254C16.631 13.771 16.801 14.271 17.156 14.37C17.51 14.469 17.915 14.13 18.059 13.613Z" fill="#1B1926"/>
<path d="M12.935 16.32C13.852 17.875 15.199 18.236 16.102 16.222C16.112 16.204 16.118 16.184 16.117 16.163C16.117 16.142 16.11 16.121 16.098 16.104C16.087 16.087 16.071 16.073 16.051 16.064C16.032 16.056 16.011 16.053 15.99 16.056L13.033 16.139C13.013 16.141 12.993 16.148 12.977 16.16C12.96 16.171 12.946 16.186 12.937 16.204C12.927 16.222 12.922 16.241 12.922 16.262C12.922 16.282 12.926 16.302 12.935 16.32Z" fill="#751B40"/>
<path d="M14.782 16.097L13.033 16.139C13.013 16.141 12.993 16.148 12.977 16.16C12.96 16.171 12.946 16.186 12.937 16.204C12.927 16.222 12.922 16.241 12.922 16.261C12.922 16.282 12.926 16.302 12.935 16.319C13.727 17.653 14.824 18.111 15.699 16.944C15.482 16.579 15.163 16.285 14.782 16.097Z" fill="#9C2455"/>
</g>
</g>
<defs>
<clipPath id="clip0_1_1178">
<rect width="28" height="28" fill="white"/>
</clipPath>
</defs>
</svg>
