<svg width="28" height="28" viewBox="0 0 28 28" fill="none" xmlns="http://www.w3.org/2000/svg">
<g clip-path="url(#clip0_1_1178)">
<mask id="mask0_1_1178" style="mask-type:alpha" maskUnits="userSpaceOnUse" x="0" y="0" width="28" height="28">
<path d="M14 28C21.732 28 28 21.732 28 14C28 6.26801 21.732 0 14 0C6.26801 0 0 6.26801 0 14C0 21.732 6.26801 28 14 28Z" fill="#C4C4C4"/>
</mask>
<g mask="url(#mask0_1_1178)">
<path d="M14 28C21.732 28 28 21.732 28 14C28 6.26801 21.732 0 14 0C6.26801 0 0 6.26801 0 14C0 21.732 6.26801 28 14 28Z" fill="#628BF7"/>
<path d="M10.917 -9.895L21.298 9.5698C21.538 10.0067 21.631 10.5097 21.562 11.0036C21.492 11.4975 21.265 11.9556 20.913 12.3093L20.769 12.4535C19.054 14.247 16.907 15.5693 14.533 16.2931C12.16 17.017 9.64 17.1181 7.216 16.5868C6.864 16.5104 6.548 16.3165 6.321 16.037C6.094 15.7575 5.969 15.409 5.966 15.0488L5.48599 -8.4531C5.43799 -17.3445 5.87 -19.315 10.917 -9.895Z" fill="#33BEB5"/>
<path d="M20.768 12.4535C21.145 12.0559 21.389 11.551 21.467 11.0085C21.544 10.4661 21.451 9.913 21.201 9.4257L10.915 -9.895C8.46396 -14.4608 7.11898 -16.3832 6.34998 -16.0468C8.31998 -2.3974 12.357 15.3853 12.357 15.3853L15.145 16.0581C17.277 15.3166 19.204 14.0815 20.768 12.4535Z" fill="#33A2BE"/>
<path d="M18.27 3.8986C17.645 2.7451 17.357 2.3606 17.069 2.9374C12.791 -3.8873 10.725 -2.5416 10.725 4.0908C10.725 4.0908 7.74501 2.5048 8.08101 8.3683C7.65701 8.2536 7.20602 8.2808 6.79802 8.4456C6.39102 8.6105 6.04802 8.9039 5.82202 9.2815L5.96602 15.0488C5.97002 15.3565 6.06202 15.6566 6.23302 15.9126C6.40302 16.1686 6.64501 16.3695 6.92801 16.4906C9.47201 16.8953 12.075 16.7068 14.534 15.9398C16.994 15.1729 19.243 13.8481 21.106 12.069C21.37 11.7128 21.528 11.2892 21.562 10.8471C21.596 10.405 21.504 9.9622 21.298 9.5698L18.27 3.8986Z" fill="#F7E5BC"/>
<path d="M21.297 9.5698L18.269 3.8986C17.644 2.7451 17.356 2.3606 17.067 2.9374C12.79 -3.8873 10.723 -2.5416 10.723 4.0908C10.47 3.9625 10.19 3.8966 9.90601 3.8986C10.723 4.0908 10.771 4.9079 11.252 6.6861C11.733 8.4644 12.069 10.0504 12.069 10.0504L19.663 13.2705C20.176 12.9109 20.658 12.509 21.105 12.069C21.369 11.7128 21.527 11.2892 21.561 10.8471C21.595 10.405 21.503 9.9622 21.297 9.5698Z" fill="#F7D197"/>
<path d="M20.961 9.8102C17.308 5.8691 14.04 4.4753 6.63898 15.2891C6.56598 15.4052 6.52297 15.5367 6.51097 15.673C6.49897 15.8092 6.51998 15.9463 6.57198 16.0729C6.62298 16.1995 6.70397 16.3121 6.80797 16.4014C6.91097 16.4908 7.03398 16.5543 7.16698 16.5868C9.59898 17.1128 12.124 17.0092 14.505 16.2859C16.885 15.5625 19.041 14.2434 20.769 12.4535L20.913 12.3093L21.249 11.8768C21.433 11.5479 21.504 11.1681 21.452 10.7951C21.4 10.4221 21.227 10.0763 20.961 9.8102Z" fill="#242236"/>
<path d="M20.336 13.1744L19.375 8.2721C16.684 6.0613 13.848 6.0133 9.08997 11.9729L11.06 16.6348C14.404 16.322 17.605 15.128 20.336 13.1744Z" fill="#9E4B34"/>
<path d="M20.576 12.9821L17.067 12.6938L16.586 14.0395L15.721 12.1651C14.904 10.2426 14.856 10.2907 14.135 11.9248C13.414 13.5589 10.194 12.9821 10.194 12.9821L9.521 11.4922C13.703 6.4458 16.346 6.1574 18.797 7.8396L20.576 12.9821Z" fill="#7A2F28"/>
<path d="M4.66799 19.6627L5.29299 18.0286C5.42799 17.7061 5.63799 17.4203 5.90499 17.1947C6.17299 16.9691 6.48999 16.8102 6.83099 16.731L9.28199 16.2503L18.99 16.0581L24.277 18.7495C24.492 18.8546 24.678 19.01 24.82 19.2024C24.963 19.3948 25.056 19.6186 25.094 19.8549L25.286 21.1045L27.833 22.7867C27.975 22.8779 28.086 23.0083 28.154 23.162C28.223 23.3156 28.245 23.4858 28.218 23.6518C27.545 29.515 21.537 38.455 13.175 34.466C6.927 31.486 1.15899 27.16 -1.62801 24.949L-2.68601 26.391C-2.97401 24.997 -2.73402 24.469 -1.82002 23.7479C-1.52802 23.5494 -1.25401 23.3241 -1.00301 23.075C-0.919014 22.8434 -0.871001 22.6003 -0.859001 22.3541C-0.619001 21.2487 -0.859004 20.9604 0.437996 20.672L4.66799 19.6627Z" fill="#33BEB5"/>
<path d="M9.33 16.8271C7.071 17.2116 5.822 17.1636 9.33 19.2302C12.839 21.2969 9.33 16.8271 9.33 16.8271Z" fill="#1E6470"/>
<path d="M15.5289 9.8582L15.9139 11.5884C15.9619 11.6365 16.0099 11.7326 16.1059 11.7326L16.8269 11.8287L16.2019 10.3869V10.2908L16.3459 9.2815L15.6729 9.666L15.5289 9.8582Z" fill="#66251F"/>
<path d="M12.068 11.5884L13.366 11.7806C12.885 12.5015 12.309 12.4054 12.068 11.5884Z" fill="#5E221D"/>
<path d="M16.828 11.1078L18.126 10.7233C17.982 11.5884 17.405 11.7326 16.828 11.1078Z" fill="#5E221D"/>
<path d="M12.933 11.8287C13.146 11.8287 13.3179 11.5275 13.3179 11.1559C13.3179 10.7843 13.146 10.483 12.933 10.483C12.721 10.483 12.549 10.7843 12.549 11.1559C12.549 11.5275 12.721 11.8287 12.933 11.8287Z" fill="black"/>
<path d="M17.549 10.9636C17.761 10.9636 17.933 10.6624 17.933 10.2908C17.933 9.9192 17.761 9.6179 17.549 9.6179C17.336 9.6179 17.1639 9.9192 17.1639 10.2908C17.1639 10.6624 17.336 10.9636 17.549 10.9636Z" fill="black"/>
<path d="M18.798 7.8396L19.855 8.6566C20.24 9.714 20.384 11.2039 20.768 12.4535C21.153 13.7031 21.681 15.5775 21.441 16.6348C21.201 17.6922 21.393 17.7883 22.066 19.134C22.739 20.4797 23.988 21.9216 23.556 23.5556C24.277 24.661 24.0359 25.334 23.8439 26.343C23.6519 27.352 22.835 30.044 21.009 29.996C20.392 30.856 19.529 31.509 18.534 31.87C17.539 32.23 16.458 32.281 15.433 32.014C12.502 31.294 9.56996 29.275 9.90596 26.632C8.94496 25.863 9.13695 23.844 9.28195 22.7386C9.38495 21.7562 9.23595 20.7638 8.84895 19.8549C8.51295 18.8937 8.51295 17.9325 8.80095 15.9139C8.46395 15.0785 8.22196 14.208 8.07996 13.3186L9.52196 11.4442L10.195 12.9822C10.517 13.6235 10.806 14.2812 11.06 14.9527C11.302 14.8465 11.5649 14.7972 11.8289 14.8085C12.0079 14.4386 12.278 14.1206 12.615 13.885C12.951 13.6494 13.343 13.504 13.751 13.4628L16.587 14.0395L17.0679 12.6938C18.4129 12.5015 19.0859 12.5015 19.5669 12.838C19.8209 12.0779 19.8549 11.2612 19.6629 10.483C19.4229 9.5698 18.798 7.8396 18.798 7.8396Z" fill="white"/>
<path d="M16.828 15.1449L15.723 14.9046C15.194 14.7604 15.242 14.7124 13.752 13.4628L16.588 14.0395L17.068 12.6938C18.414 12.5015 19.087 12.5015 19.568 12.838C19.822 12.0779 19.855 11.2612 19.664 10.483C19.423 9.5698 18.799 7.8396 18.799 7.8396L19.808 8.6566C20.24 9.714 20.385 11.2039 20.769 12.4535C21.154 13.7031 21.682 15.5775 21.442 16.6348C21.202 17.6922 21.394 17.7883 22.067 19.134C22.74 20.4797 23.989 21.9216 23.557 23.5556C24.278 24.661 24.037 25.334 23.845 26.343C23.653 27.352 22.836 30.044 21.009 29.996C20.393 30.856 19.53 31.509 18.535 31.87C17.54 32.23 16.459 32.281 15.434 32.014C12.503 31.294 9.57099 29.275 9.90699 26.632C10.82 29.131 12.743 28.65 12.743 28.65C13.911 28.398 15.105 28.285 16.299 28.314C16.972 27.112 17.789 25.959 18.462 25.478C19.904 22.7386 18.799 19.8069 18.126 18.1728L16.828 15.1449Z" fill="#D6DFFF"/>
<path d="M16.828 15.145C17.549 15.2891 17.501 14.6644 17.453 14.0396C17.426 13.568 17.2949 13.1082 17.0679 12.6938L16.588 14.0396L13.752 13.4628C15.242 14.7124 15.1939 14.7605 15.7219 14.9047L16.828 15.145Z" fill="#CAD5FC"/>
<path d="M11.396 10.7714L14.04 10.0024C13.817 9.876 13.57 9.7956 13.315 9.766C13.061 9.7363 12.802 9.7579 12.556 9.8296C12.31 9.9012 12.08 10.0215 11.881 10.1832C11.682 10.345 11.517 10.5449 11.396 10.7714Z" fill="#CFDEFF"/>
<path d="M15.963 9.714L18.702 9.18541C18.266 8.90391 17.737 8.8017 17.227 8.9002C16.716 8.9987 16.264 9.2902 15.963 9.714Z" fill="#CFDEFF"/>
<path d="M17.9809 16.1542C17.9709 16.3342 17.8979 16.505 17.7749 16.6368C17.6519 16.7685 17.487 16.8529 17.308 16.8752C14.424 17.2597 13.175 16.5868 12.694 16.2023C12.636 16.1478 12.5929 16.0797 12.5679 16.0042C12.5419 15.9287 12.536 15.8481 12.55 15.7697V15.6736C14.088 16.2023 16.395 15.962 16.924 15.8659C17.452 15.7697 17.26 15.6256 17.212 15.3853C17.313 15.3853 17.413 15.4051 17.506 15.4438C17.6 15.4824 17.684 15.5391 17.756 15.6105C17.827 15.6819 17.8839 15.7667 17.9219 15.86C17.9609 15.9533 17.9809 16.0533 17.9809 16.1542Z" fill="#DE5D70"/>
<path d="M14.448 3.51069C14.927 3.28129 14.98 2.3967 14.567 1.535C14.154 0.673202 13.432 0.160598 12.953 0.389998C12.474 0.619298 12.421 1.5039 12.834 2.3657C13.246 3.2274 13.969 3.74009 14.448 3.51069Z" fill="#FF9CCD"/>
<path d="M14.568 1.4955C14.183 0.630396 13.414 0.1017 12.934 0.342C12.876 0.3715 12.825 0.412197 12.784 0.461797C12.743 0.511297 12.712 0.568699 12.693 0.630399C13.51 0.582299 13.078 1.5436 14.568 1.4955Z" fill="#FFEBF5"/>
<path d="M12.549 1.2072C12.559 1.6029 12.641 1.9936 12.789 2.3606L12.981 2.649C13.126 2.6009 13.462 2.5048 13.606 2.7451C13.75 2.9854 13.9429 3.418 14.4709 3.5141C14.6009 3.4123 14.704 3.2802 14.771 3.1294C14.838 2.9786 14.867 2.8136 14.856 2.649H14.712C13.702 2.649 13.126 1.5916 12.549 1.2072Z" fill="#FF70B7"/>
<path d="M9.52202 6.6381C9.78702 6.6381 10.002 6.3584 10.002 6.0133C10.002 5.6683 9.78702 5.3885 9.52202 5.3885C9.25602 5.3885 9.04102 5.6683 9.04102 6.0133C9.04102 6.3584 9.25602 6.6381 9.52202 6.6381Z" fill="#F7D197"/>
<path d="M6.97502 10.7714C7.24002 10.7714 7.45502 10.4917 7.45502 10.1466C7.45502 9.8016 7.24002 9.5219 6.97502 9.5219C6.70902 9.5219 6.49402 9.8016 6.49402 10.1466C6.49402 10.4917 6.70902 10.7714 6.97502 10.7714Z" fill="#F7D197"/>
<path d="M8.07996 13.3186C8.22196 14.0677 8.41495 14.8063 8.65695 15.5294C8.65695 14.9527 8.89695 14.2798 9.28195 14.1356C9.66595 13.9915 9.71396 13.0302 10.195 12.9822L9.52196 11.4442L8.07996 13.3186Z" fill="#A8C3FF"/>
<path d="M18.316 18.6534C19.518 19.855 19.95 20.7201 20.047 21.3929C19.558 21.2143 19.103 20.9543 18.701 20.624L18.316 18.6534Z" fill="white"/>
<path d="M13.703 9.1374C14.761 8.8192 15.836 8.5624 16.923 8.3684C15.193 8.1762 14.232 8.4645 13.703 9.1374Z" fill="#66251F"/>
<path d="M14.809 11.2039C14.819 11.4258 14.875 11.6432 14.975 11.8419C15.074 12.0406 15.214 12.2162 15.386 12.3574C15.626 12.5496 15.434 12.2132 15.145 11.5884C14.857 10.9636 14.713 10.8194 14.809 11.2039Z" fill="#C27059"/>
</g>
</g>
<defs>
<clipPath id="clip0_1_1178">
<rect width="28" height="28" fill="white"/>
</clipPath>
</defs>
</svg>
