<svg width="28" height="28" viewBox="0 0 28 28" fill="none" xmlns="http://www.w3.org/2000/svg">
<g clip-path="url(#clip0_1_1178)">
<mask id="mask0_1_1178" style="mask-type:alpha" maskUnits="userSpaceOnUse" x="0" y="0" width="28" height="28">
<path d="M14 28C21.732 28 28 21.732 28 14C28 6.26801 21.732 0 14 0C6.26801 0 0 6.26801 0 14C0 21.732 6.26801 28 14 28Z" fill="#C4C4C4"/>
</mask>
<g mask="url(#mask0_1_1178)">
<path d="M14 28C21.732 28 28 21.732 28 14C28 6.26801 21.732 0 14 0C6.26801 0 0 6.26801 0 14C0 21.732 6.26801 28 14 28Z" fill="#FFB869"/>
<path d="M6.81604 18.572C8.45004 24.254 15.023 28.19 20.297 24.477C25.57 20.763 20.3341 13.15 20.3341 13.15C20.3341 13.15 23.193 5.946 16.026 4.238C8.85905 2.529 7.07604 5.649 6.81604 18.572Z" fill="#4D7AE8"/>
<path d="M17.437 14.413C16.637 14.413 15.988 13.548 15.988 12.482C15.988 11.415 16.637 10.551 17.437 10.551C18.236 10.551 18.885 11.415 18.885 12.482C18.885 13.548 18.236 14.413 17.437 14.413Z" fill="#DBE7FF"/>
<path d="M18.0581 13.948C17.8531 13.934 17.709 13.608 17.736 13.219C17.762 12.83 17.949 12.526 18.154 12.54C18.359 12.554 18.5031 12.881 18.4761 13.27C18.4501 13.658 18.2621 13.962 18.0581 13.948Z" fill="#201E2F"/>
<path d="M19.107 8.88C19.011 8.591 18.827 8.33999 18.58 8.16299C18.334 7.98499 18.038 7.88901 17.733 7.88901C17.429 7.88901 17.133 7.98499 16.886 8.16299C16.64 8.33999 16.455 8.591 16.359 8.88H19.107Z" fill="#201E2F"/>
<path d="M18.9591 17.087C17.5481 17.458 16.025 17.124 14.762 15.75C14.597 15.562 14.3661 15.445 14.1171 15.424C13.8671 15.403 13.619 15.48 13.426 15.638C13.214 15.782 13.0681 16.003 13.0201 16.253C12.9711 16.504 13.023 16.763 13.166 16.975C15.097 20.132 18.105 20.615 19.961 18.832C20.089 18.718 20.184 18.571 20.236 18.408C20.288 18.245 20.296 18.071 20.259 17.904C20.233 17.762 20.178 17.626 20.097 17.507C20.016 17.387 19.911 17.286 19.789 17.209C19.667 17.132 19.53 17.081 19.387 17.06C19.244 17.039 19.0981 17.048 18.9591 17.087Z" fill="#590942"/>
<path d="M17.882 17.235C18.247 17.238 18.6091 17.188 18.9591 17.087H19.2941V18.015C19.2941 18.015 18.7361 18.424 16.6571 18.201V17.681L13.0181 16.455C13.0191 16.302 13.0571 16.152 13.1281 16.016C13.1991 15.881 13.3011 15.764 13.4261 15.676C13.4261 15.666 13.4301 15.656 13.4371 15.649C13.4441 15.642 13.4531 15.638 13.4631 15.638C13.6161 15.534 13.7981 15.482 13.9831 15.49C14.0201 15.453 14.0951 15.49 14.1321 15.49H14.4661C14.5031 15.527 14.5401 15.527 14.5401 15.564C14.5401 15.601 14.6141 15.564 14.6141 15.601L14.7631 15.713C14.9831 15.965 15.2321 16.189 15.5061 16.381L16.0261 16.715C16.2681 16.864 16.5301 16.977 16.8051 17.05C17.1521 17.169 17.516 17.232 17.882 17.235Z" fill="#DBE7FF"/>
<path d="M13.4261 15.638C13.4261 15.629 13.4301 15.619 13.4371 15.612C13.4441 15.605 13.4531 15.601 13.4631 15.601C13.6161 15.497 13.7981 15.445 13.9831 15.453C14.0201 15.416 14.0951 15.453 14.1321 15.453H14.4661C14.5031 15.49 14.5401 15.49 14.5401 15.527C14.5401 15.564 14.6141 15.527 14.6141 15.564L14.7631 15.676C14.8801 15.83 15.0171 15.967 15.1711 16.084L14.1321 16.715L13.0181 16.344C13.0301 16.204 13.0731 16.068 13.1441 15.946C13.2141 15.824 13.3111 15.719 13.4261 15.638Z" fill="#B5CDFF"/>
<path d="M8.33801 6.83701C9.67501 3.86601 12.014 3.27201 16.025 4.23801C16.833 4.41801 17.609 4.719 18.327 5.129C18.55 6.317 16.731 6.689 13.351 5.612C14.465 7.617 12.163 11.182 8.33801 6.83701Z" fill="#201E2F"/>
<path d="M13.0171 4.12601L13.2031 1.67501C13.2201 1.45201 13.1881 1.227 13.1101 1.017C13.0321 0.806004 12.9091 0.615006 12.7511 0.457006C12.5921 0.298006 12.4011 0.176013 12.1911 0.0980126C11.9801 0.0190126 11.7561 -0.0119968 11.5321 0.00400317C11.2801 0.0190032 11.0351 0.0940044 10.8191 0.224004C10.6021 0.353004 10.4201 0.533998 10.2891 0.748998C10.1571 0.964998 10.0801 1.209 10.0641 1.461C10.0481 1.713 10.0931 1.96501 10.1951 2.19501L11.3091 4.721L13.0171 4.12601Z" fill="#201E2F"/>
<path d="M3.36205 17.235L4.47604 17.644L6.81604 16.121V18.015L8.74704 19.538C9.15304 19.871 9.48705 20.283 9.72905 20.749C9.97205 21.215 10.1181 21.725 10.1581 22.249L10.232 23.771C13.055 26.111 16.917 26.853 20.296 24.477C20.846 24.11 21.334 23.659 21.744 23.14L22.896 23.548C22.896 23.548 20.5561 33.389 16.6571 35.172C12.7581 36.954 10.047 35.172 10.047 35.172C5.96204 21.283 7.15004 18.684 -2.95096 22.694L-3.43396 19.872L3.36205 17.235Z" fill="#EF6767"/>
<path d="M11.457 12.816L4.10403 5.946L3.43604 6.8L9.11703 17.384L11.457 12.816Z" fill="#4D7AE8"/>
<path d="M8.7831 11.256L5.88708 9.214L8.1151 13.225L7.70609 11.665L8.7831 11.256Z" fill="#3366E0"/>
</g>
</g>
<defs>
<clipPath id="clip0_1_1178">
<rect width="28" height="28" fill="white"/>
</clipPath>
</defs>
</svg>
