<svg width="28" height="28" viewBox="0 0 28 28" fill="none" xmlns="http://www.w3.org/2000/svg">
<g clip-path="url(#clip0_1_1178)">
<mask id="mask0_1_1178" style="mask-type:alpha" maskUnits="userSpaceOnUse" x="0" y="0" width="28" height="28">
<path d="M14 28C21.732 28 28 21.732 28 14C28 6.26801 21.732 0 14 0C6.26801 0 0 6.26801 0 14C0 21.732 6.26801 28 14 28Z" fill="#C4C4C4"/>
</mask>
<g mask="url(#mask0_1_1178)">
<path d="M14 28C21.732 28 28 21.732 28 14C28 6.26801 21.732 0 14 0C6.26801 0 0 6.26801 0 14C0 21.732 6.26801 28 14 28Z" fill="#CFDEFF"/>
<path d="M29.647 32.788C29.382 32.132 28.942 31.56 28.376 31.134C27.81 30.709 27.139 30.445 26.435 30.371L24.965 30.216C22.855 22.615 23.922 20.889 17.693 19.184L12.652 19.006C12.652 19.006 7.52902 19.092 5.64502 21.614L8.28001 30.252C8.28001 30.252 7.20102 35.985 7.69202 38.891L14.258 38.044L17.104 47.252C27.833 45.66 32.831 40.687 32.831 40.687L29.647 32.788Z" fill="#CFDEFF"/>
<path d="M6.84595 19.687C13.9949 26.383 20.456 30.959 19.368 20.395L6.84595 19.687Z" fill="#B8C5FF"/>
<path d="M10.355 20.477C16.58 23.402 18.196 24.506 17.788 20.99L10.355 20.477Z" fill="#5697B0"/>
<path d="M23.79 25.395C23.032 22.201 22.463 20.824 19.275 19.671C20.133 21.678 20.507 25.819 20.507 25.819L23.79 25.395Z" fill="white"/>
<path d="M13.165 9.96199L12.937 8.196C12.86 7.62 12.603 7.083 12.201 6.664C11.799 6.244 11.274 5.962 10.702 5.861C10.073 5.751 9.42602 5.86599 8.87402 6.18599C8.32202 6.50499 7.90003 7.009 7.68203 7.609C6.88103 9.784 5.62903 13.283 4.76603 16.226C3.39203 20.916 9.60901 22.001 15.718 21.534C21.827 21.068 22.403 18.392 21.557 14.519C21.015 12.103 20.328 9.63599 19.9 8.10299C19.769 7.67499 19.516 7.295 19.173 7.008C18.829 6.721 18.41 6.541 17.965 6.488C17.467 6.43 16.964 6.54 16.535 6.799C16.106 7.059 15.775 7.45399 15.595 7.92199L14.909 9.737L13.165 9.96199Z" fill="#7CE4CC"/>
<path d="M20.737 16.374L20.303 16.223L18.078 16.994L15.814 17.286L11.891 16.503C11.891 16.503 9.73399 13.168 9.89099 16.877C10.014 19.439 11.102 20.91 11.765 21.584C13.082 21.644 14.401 21.62 15.715 21.511C16.706 21.456 17.689 21.291 18.644 21.018C19.305 20.081 20.372 18.355 20.737 16.374Z" fill="#AAFAE7"/>
<path opacity="0.74" d="M9.826 16.563C9.322 15.154 8.41 12.187 8.789 9.952C9.168 7.716 9.667 5.879 10.701 5.86C10.072 5.751 9.425 5.86599 8.873 6.18599C8.321 6.50499 7.899 7.009 7.681 7.609C6.879 9.784 5.628 13.283 4.765 16.226C3.533 20.414 8.375 21.722 13.794 21.621C12.618 21.428 11.124 20.193 9.826 16.563Z" fill="url(#paint0_linear_1_1178)"/>
<path d="M13.794 21.621L13.358 21.631L12.944 21.639L12.296 21.607L12.092 21.634L11.766 21.607C11.106 20.955 10.019 19.484 9.895 16.922C9.886 16.876 9.88799 16.828 9.89999 16.783C11.174 20.233 12.643 21.447 13.794 21.621Z" fill="#AAFAE7"/>
<path d="M20.203 15.983L20.2 16.5C17.82 18.057 17.433 18.487 11.3 16.562L11.238 16.081L11.504 16.155C16.697 17.468 17.689 17.585 20.203 15.983Z" fill="#2C4661"/>
<path d="M10.817 17.993C11.619 17.77 12.066 16.86 11.815 15.961C11.565 15.062 10.712 14.514 9.91101 14.738C9.10901 14.961 8.66202 15.87 8.91202 16.769C9.16202 17.668 10.015 18.216 10.817 17.993Z" fill="#738EFF"/>
<path d="M21.3469 16.128C21.5099 15.351 21.282 14.645 20.838 14.552C20.394 14.459 19.902 15.014 19.739 15.791C19.576 16.568 19.8039 17.274 20.2479 17.367C20.6919 17.461 21.1839 16.906 21.3469 16.128Z" fill="#738EFF"/>
<path opacity="0.41" d="M15.264 14.64C15.15 14.471 15.342 14.354 15.494 14.288C15.556 14.265 15.624 14.261 15.688 14.278C15.752 14.294 15.809 14.33 15.852 14.38L16.432 15.134C16.6 15.366 16.348 15.375 16.099 15.223C15.849 15.071 15.437 14.917 15.264 14.64Z" fill="#284E7A"/>
<path opacity="0.41" d="M17.866 14.995L18.043 14.581C18.074 14.51 18.083 14.431 18.069 14.355C18.055 14.279 18.019 14.209 17.965 14.154L17.885 14.072C17.878 14.063 17.869 14.057 17.858 14.053C17.847 14.049 17.836 14.047 17.825 14.049C17.814 14.05 17.803 14.054 17.794 14.061C17.785 14.068 17.777 14.076 17.772 14.086C17.664 14.382 17.58 14.685 17.521 14.994C17.494 15.319 17.698 15.293 17.866 14.995Z" fill="#284E7A"/>
<path d="M15.3481 10.118L13.1641 9.962L14.9081 9.737L15.5941 7.922C15.7741 7.454 16.1051 7.05901 16.5341 6.79901C16.9631 6.54001 17.4661 6.43 17.9641 6.488L18.3891 6.571C17.3521 6.383 17.0001 7.579 16.7961 9.033C16.6921 9.829 16.7221 10.24 15.3481 10.118Z" fill="#61C7C7"/>
<path d="M19.423 9.786C19.427 9.231 19.061 8.779 18.607 8.777C18.153 8.774 17.7829 9.221 17.7789 9.776C17.7759 10.331 18.141 10.783 18.595 10.786C19.049 10.788 19.42 10.341 19.423 9.786Z" fill="#21354A"/>
<path d="M11.737 9.454C11.791 8.902 11.469 8.418 11.017 8.373C10.566 8.329 10.155 8.74 10.101 9.292C10.046 9.844 10.368 10.328 10.82 10.373C11.272 10.417 11.682 10.006 11.737 9.454Z" fill="#21354A"/>
<path d="M8.27906 30.252C9.22506 30.268 10.4311 30.158 11.5071 30.112C11.4871 29.682 11.5241 29.251 11.6181 28.831C11.7831 28.126 12.0351 27.444 12.3681 26.801C11.5071 26.728 10.4621 26.655 9.60705 26.628C9.42805 22.392 7.19905 20.102 5.96905 21.273C5.38605 21.827 5.03106 22.579 4.97506 23.381C4.94306 24.03 5.01005 25.08 4.97105 25.315C4.86405 26.089 4.31806 26.321 4.98706 27.754C5.33206 28.469 4.68506 30.233 8.27906 30.252Z" fill="white"/>
<path d="M11.229 6.023C12.106 6.577 12.326 7.93 12.397 8.473C12.467 9.016 12.593 9.99 12.625 10.239C12.657 10.488 12.736 10.57 13.568 10.946C14.399 11.322 14.052 10.953 13.674 10.518L13.164 9.962L12.936 8.196C12.872 7.714 12.68 7.258 12.38 6.876C12.079 6.494 11.682 6.199 11.229 6.023Z" fill="#D4FFDC"/>
<path d="M18.949 9.123C19.264 9.244 19.335 9.97101 19.022 9.68901C18.71 9.40701 18.515 8.972 18.949 9.123Z" fill="#335A70"/>
<path d="M11.344 8.701C11.636 8.824 11.71 9.575 11.417 9.267C11.124 8.96 10.888 8.553 11.344 8.701Z" fill="#335A70"/>
<path d="M11.28 17.049C11.581 16.89 11.606 16.345 11.335 15.833C11.064 15.32 10.6 15.033 10.299 15.192C9.99802 15.351 9.97401 15.896 10.245 16.409C10.516 16.921 10.979 17.208 11.28 17.049Z" fill="#B2A6FF"/>
<path d="M21.3289 15.51C21.3289 15.145 21.1869 14.848 21.0099 14.848C20.8339 14.848 20.6899 15.144 20.6899 15.51C20.6899 15.876 20.8329 16.172 21.0089 16.172C21.1859 16.172 21.3289 15.876 21.3289 15.51Z" fill="#B2A6FF"/>
<path d="M19.027 7.226C19.515 7.623 19.654 8.342 19.106 7.837C18.557 7.332 18.436 6.75 19.027 7.226Z" fill="#D4FFDC"/>
</g>
</g>
<defs>
<linearGradient id="paint0_linear_1_1178" x1="4.182" y1="16.601" x2="8.775" y2="14.859" gradientUnits="userSpaceOnUse">
<stop stop-color="#61C7C7"/>
<stop offset="1" stop-color="#54B9C7"/>
</linearGradient>
<clipPath id="clip0_1_1178">
<rect width="28" height="28" fill="white"/>
</clipPath>
</defs>
</svg>
