<svg width="28" height="28" viewBox="0 0 28 28" fill="none" xmlns="http://www.w3.org/2000/svg">
<g clip-path="url(#clip0_1_1178)">
<mask id="mask0_1_1178" style="mask-type:alpha" maskUnits="userSpaceOnUse" x="0" y="0" width="28" height="28">
<path d="M14 28C21.732 28 28 21.732 28 14C28 6.26801 21.732 0 14 0C6.26801 0 0 6.26801 0 14C0 21.732 6.26801 28 14 28Z" fill="#C4C4C4"/>
</mask>
<g mask="url(#mask0_1_1178)">
<path d="M14 28C21.732 28 28 21.732 28 14C28 6.26801 21.732 0 14 0C6.26801 0 0 6.26801 0 14C0 21.732 6.26801 28 14 28Z" fill="#FF82A6"/>
<path d="M21.91 3.282L21.8689 3.402L21.747 3.69401L21.7059 3.81301L21.6109 4.02601C19.5199 8.89601 15.509 12.486 12.852 14.981C10.1 17.553 7.00295 19.728 3.64995 21.445C0.347947 23.03 -1.14604 21.606 -0.77704 18.905L-0.447053 17.55L1.17995 10.718L1.24995 10.385C2.35095 5.933 4.04995 3.37601 9.57495 1.99601L17.9819 -0.0659892L18.0079 -0.0789896C20.9439 -0.78799 22.987 0.201003 21.91 3.282Z" fill="url(#paint0_linear_1_1178)"/>
<path d="M21.045 -0.0410004C18.378 0.404 13.384 3.612 8.431 8.326C3.479 13.04 -0.305996 18.243 -0.645996 20.798C-0.177996 22.16 1.25699 22.584 3.64999 21.445C7.00299 19.729 10.1 17.553 12.852 14.981C15.509 12.486 19.52 8.896 21.611 4.026L21.706 3.813L21.747 3.694L21.869 3.40199L21.91 3.282C22.55 1.476 22.12 0.394 21.045 -0.0410004Z" fill="url(#paint1_linear_1_1178)"/>
<path d="M13.131 13.221C17.939 8.659 21.13 4.216 20.258 3.297C19.386 2.379 14.782 5.332 9.97501 9.894C5.16701 14.456 1.97601 18.899 2.84801 19.818C3.71901 20.736 8.324 17.783 13.131 13.221Z" fill="#6B3143"/>
<path d="M12.1219 21.141L10.849 22.063C10.542 22.267 10.285 22.537 10.095 22.854C9.90596 23.17 9.78995 23.525 9.75595 23.892L9.54295 25.555L7.30196 27.614C6.83296 28.075 6.55595 28.696 6.52795 29.353L6.54196 30.937C6.54196 30.937 18.7939 37.47 25.3829 36.298C31.9709 35.127 27.961 23.827 27.961 23.827C27.903 23.717 27.815 23.624 27.708 23.56C27.6 23.496 27.4769 23.462 27.3519 23.463L25.3949 23.327L24.56 21.283C24.483 21.093 24.36 20.925 24.204 20.794C24.047 20.663 23.86 20.572 23.66 20.529L17.89 19.31L12.1219 21.141Z" fill="#EF6270"/>
<path d="M12.4009 24.553C10.6459 24.219 10.7649 24.26 11.2649 23.451C11.5499 22.952 11.9679 22.54 12.4729 22.263L12.4009 24.553Z" fill="#BD3C53"/>
<path d="M15.091 8.31399C14.88 8.08599 13.112 9.35 11.152 11.172C9.19299 12.994 7.78099 14.647 7.99299 14.875C10.347 18.463 11.918 21.872 12.402 24.553L21.975 26.429C21.458 17.928 17.484 12.116 15.091 8.31399Z" fill="#FFB685"/>
<path d="M18.7339 15.871C18.6529 15.57 18.4209 15.369 18.2139 15.424C18.0069 15.479 17.9049 15.769 17.9849 16.071C18.0659 16.373 18.2979 16.573 18.5049 16.518C18.7119 16.463 18.8139 16.173 18.7339 15.871Z" fill="#543247"/>
<path d="M15.5889 17.655C15.7379 17.438 15.63 17.104 15.346 16.907C15.062 16.71 14.71 16.726 14.56 16.943C14.411 17.159 14.519 17.494 14.803 17.69C15.087 17.887 15.4389 17.871 15.5889 17.655Z" fill="#543247"/>
<path d="M17.56 20.6C18.363 20.207 19.098 19.813 19.444 19.909C19.789 20.005 19.638 20.643 19.259 21.359C18.88 22.075 18.989 21.757 18.112 21.523C17.235 21.289 16.945 20.901 17.56 20.6Z" fill="#C74153"/>
<path d="M17.894 20.469L17.278 20.903C17.303 21.157 17.6599 21.413 18.1119 21.523C18.5639 21.633 19.0829 21.677 19.2589 21.359L19.4209 21.014C19.1959 20.826 18.574 20.368 17.894 20.469Z" fill="#A82C3C"/>
<path d="M19.1109 19.906C18.5749 20.091 18.0559 20.323 17.5609 20.599C17.2129 20.77 17.2379 20.956 17.3969 21.144L19.2409 20.307C19.3479 20.254 19.2169 20.054 19.1109 19.906Z" fill="white"/>
<path d="M21.435 17.408C21.448 17.368 21.422 17.315 21.436 17.275C21.404 17.005 21.289 16.751 21.107 16.549C20.925 16.348 20.685 16.207 20.419 16.148C20.484 16.205 20.534 16.277 20.567 16.357C20.599 16.437 20.613 16.523 20.607 16.609C20.602 16.695 20.576 16.778 20.533 16.853C20.49 16.928 20.43 16.992 20.359 17.04C20.102 17.187 19.814 17.272 19.518 17.286C19.133 17.329 18.762 17.456 18.431 17.658C18.1 17.861 17.818 18.133 17.604 18.456C16.246 18.391 15.773 19.253 14.81 19.725C14.551 19.859 14.271 19.951 13.982 19.998C13.035 20.163 12.879 19.776 12.856 19.256C11.811 20.1 12.467 21.304 13.277 21.603C13.754 21.834 14.394 21.719 15.065 21.192C16.726 21.605 17.314 21.383 18.272 19.82C19.854 20.205 20.871 19.574 20.949 18.11C21.082 18.043 21.196 17.943 21.281 17.821C21.366 17.698 21.419 17.556 21.435 17.408Z" fill="#6B3143"/>
<path d="M18.272 19.82C19.854 20.205 20.871 19.574 20.95 18.11C21.083 18.043 21.197 17.943 21.281 17.821C21.366 17.698 21.419 17.556 21.435 17.408C21.448 17.368 21.422 17.315 21.436 17.275C21.409 17.137 21.365 17.002 21.306 16.874C21.324 17.095 21.26 17.315 21.126 17.491C20.992 17.667 20.797 17.787 20.579 17.827C20.104 18.889 19.144 19.094 18.04 18.872C18.04 18.872 16.801 20.607 15.086 20.22C13.879 21.209 12.589 21.078 12.317 20.117C12.292 20.436 12.372 20.754 12.546 21.022C12.719 21.291 12.976 21.495 13.277 21.603C13.754 21.834 14.395 21.719 15.065 21.192C16.726 21.605 17.314 21.383 18.272 19.82Z" fill="#5E2737"/>
</g>
</g>
<defs>
<linearGradient id="paint0_linear_1_1178" x1="10.008" y1="2.78601" x2="11.248" y2="17.312" gradientUnits="userSpaceOnUse">
<stop stop-color="#FFC285"/>
<stop offset="1" stop-color="#DB8D6B"/>
</linearGradient>
<linearGradient id="paint1_linear_1_1178" x1="-2.215" y1="17.656" x2="23.968" y2="4.83101" gradientUnits="userSpaceOnUse">
<stop stop-color="#D67569"/>
<stop offset="1" stop-color="#E39E7F"/>
</linearGradient>
<clipPath id="clip0_1_1178">
<rect width="28" height="28" fill="white"/>
</clipPath>
</defs>
</svg>
